<?xml version="1.0" standalone="no"?><!DOCTYPE svg PUBLIC "-//W3C//DTD SVG 1.1//EN" "http://www.w3.org/Graphics/SVG/1.1/DTD/svg11.dtd"><svg class="icon" style="" viewBox="0 0 1024 1024" version="1.1" xmlns="http://www.w3.org/2000/svg" p-id="2548" xmlns:xlink="http://www.w3.org/1999/xlink" width="128" height="128"><defs><style type="text/css"><![CDATA[

]]></style></defs><path d="M83.807573 800.26624c0 0 178.92352-62.69952 344.08448-62.69952s194.215253 30.583467 327.26016 31.351467c133.044907 0.764587 212.565333-71.109973 212.565333-199.56736s-117.753173-172.806827-174.336-172.806827-122.340693 39.76192-142.219947 68.816213c16.820907-73.403733-3.058347-241.62304-178.92352-241.62304s-198.802773 172.806827-175.865173 256.914773c-38.232747-50.466133-67.28704-48.93696-99.403093-48.93696s-140.690773 38.232747-140.690773 133.044907 70.345387 136.434347 133.044907 136.434347 103.990613-50.793813 103.990613-93.61408-39.76192-79.520427-74.932907-79.520427-55.053653 15.291733-61.170347 27.52512c-1.529173-55.053653 59.641173-61.170347 74.932907-61.170347s53.52448 7.645867 67.28704 41.291093c59.641173-58.112 160.57344-159.044267 169.74848-204.919467 61.170347 79.520427 178.92352 221.743787 221.743787 230.918827 7.645867-55.053653 48.93696-61.170347 68.816213-61.170347s90.22464 3.058347 90.22464 79.520427-58.112 121.142613-142.219947 121.142613-155.98592-29.385387-240.093867-29.385387S203.08992 691.688107 83.807573 800.26624z" p-id="2549" fill="#13227a"></path><path d="M474.914133 387.365547c0 0-79.138133 123.869867-162.8672 173.18912 34.409813 0 43.584853 0 43.584853 0l0 99.785387 79.138133 0 0-99.785387 69.963093 0 0 99.785387 79.138133 0 0-103.226027 50.466133 0C634.340693 557.114027 533.408427 482.563413 474.914133 387.365547z" p-id="2550" fill="#13227a"></path></svg>